<svg xmlns="http://www.w3.org/2000/svg" xmlns:xlink="http://www.w3.org/1999/xlink" viewBox="0 0 141 139">
    <path d="M99.547 122.239s22.588-16.437 40.531-16.803c.085-.002.07.038-.031.05-20.966 2.468-40.579 21.127-40.579 21.127s-16.39-1.301-29.973-4.766c-.834-1.702-.602-4.272-.602-4.272.01-.005.02-.011.03-.016 2.634.661 6.649 1.41 10.864 2.08 9.311 1.48 19.76 2.6 19.76 2.6zm-8.344 9.406c.966-.312.761-.095.761-.095-8.599 4.371-18.322 6.836-28.611 6.836C28.42 138.386 0 109.966 0 75.032c0-6.19.892-12.176 2.555-17.835.948-3.227.135.328-.539 5.51-.408 3.137-.719 6.91-.688 10.021.75 35.25 29.001 62.078 61.334 62.911 9.566.246 16.5-.167 27.364-3.629 0 0 .531-.157 1.177-.365zm32.542-56.5c0-33.831-26.25-61.667-60.053-62.802-2.947-.031-6.072.01-10.614.552-.81.096-1.338.092-1.375-.083.667-.209 2.137-.421 2.137-.421 3.104-.47 6.281-.713 9.513-.713 34.934 0 63.354 28.421 63.354 63.354 0 9.298-2.022 18.129-5.635 26.09-1.271.093-2.64.205-4.09.341 4.096-7.999 6.763-16.963 6.763-26.318zM44.644 59.43c2.919-.114 5.329-1.921 12.485-1.315-.927-.423-3.773-1.075-4.997-1.146-1.852-.106-2.498-.204-6.008.282-1.878.259-4.735-.04-6.069-.822-2.648-1.552-3.268-2.798-3.268-2.798s.412 2.208 1.892 3.878c1.125 1.269 3.265 2.027 5.965 1.921zm26.583 33.834c-16.75 3.5-19.375-16.25-19.375-16.25-.166 2-.708 7.791 2.625 12.625 2.599 3.768 6.563 4.687 8.25 4.875 2.436.27 6.709-.312 8.5-1.25zM19.193 11.827c3.62.064 11.664-3.145 11.156-3.145-.508 0-1.122-.668-6.122.332-7.676 1.535-12.646.105-14.932-1.715 1.27 2.201 4.728 4.438 9.898 4.528zm8.552 37.679s1.854-.563-2.021 0c-2.508.364-6.351-.162-8.122-2.117-3.244-3.583-5.482-9.675-5.315-11.508.167-1.833 1.417-3.375 1.75-5.875.297-2.228-2.164-1.397-2-8.625.02-.883-.125-2.328-.188-2.713 0 0-1 4.833-.833 6.5.167 1.667 1.229 3.631 1.07 4.756-.204 1.456-2.086 4.181-1.841 6.665.342 3.458 4.509 12.579 7.925 13.996 2.974 1.232 9.575-1.079 9.575-1.079zm82.599-1.737c.85-.064.403.765.117 1.051-.354.354-3.112 1.757-3.529 2.257-.154.639 1.46-.524 2.138-.795.589-.236 1.127-.021.919.5-.177.443-.99.671-3.074 2.303-2.909 2.278-5.332 2.75-6.742 2.473-2.134.901-6.317 2.59-8.241 3.269-11.583 4.083-21.995 7.964-33.588 12.045-3.76 1.324-5.026 4.342-4.299 7.448.794 3.392 2.445 6.954 4.738 9.541 3.757 4.239 5.652 3.747 8.841-.958 3.921-5.785 5.144-6.455 11.175-1.326 1.25.875-.789 1.378-3 1.25-2.867-.167-3.272 3.699-4.617 4.5 5.917-.334 9.884-1.155 11.424-4.845 2.344-5.619 5.317-4.119 8.956-2.611.907.376 1.765.87 3.192 1.581 2.05 1.559-.03 1.979-1.843 1.997-.785-.038-1.886-.043-2.729.294-1.554.622-3.965 3.584-5.645 5.188-2.625 3.125-12.688 9.937-22.82 11.816-22.875 4.243-40.23-6.132-48.751-26.42-.949-2.258-1.531-5.464-1.175-9.175.037-1.544-.614-2.695-.932-3.575-.968-2.688-2.643-4.5-2.893-8s1.884-4.937 3-5.5c1.362-.688 2.836.164 4.666.883.362-.39.703-.831 1-1.336-2.674-2.228-5.918-7.719-7.166-12.214-1.557-5.603 1.012-7.881 1.012-9.338 0-1.457-1.275-3.62-1.335-4.564-.096-1.496.573-6.912 1.615-10.469 0 0 .112-.337-.013-.546-.125-.208-.384-.41-.384-.41s-2.887-2.756-2.762-3.256c.833.5 1.833.666 2.469.671-1.713-1.677-3.052-3.529-3.052-7.921 5.416 4.916 9.583 4.208 14.333 3.916 1.5-.125 4.908-.817 6.292-1.104 1.842-.381 11.625 1.104 16.791 7.438l-1.696.006s.106.322.466.897c.354.444.7.899 1.029 1.382.695.817 1.694 1.822 3.13 2.971.005.004.006.006.011.01l1.644 1.046-1.387.149c-.062.025-.113.039-.113.039s1.023.819 1.412 1.565c.282.392.514.831.588 1.31.25 1.625.5 1.875.5 1.875s-1.787-1.177-2.125-1.313c-.519-.207-.563.057-.564.153.159.236 1.126 1.347 1.189 2.16-.02 3.161-1.927 9.826-3 12.25-.084-.114-.447-2.623-.53-2.744 0 0-.461 3.383-.804 4.327-1.595 4.993-2.571 7.173-2.571 7.173l-.659-1.758c-.705.598-2.236 1.835-2.236 1.835-1.242 1.042-4.318 3.505 1.05 7.083.75.5 2.546.932 3.489.99 3.633.225 7.501-.83 10.913.043 14.381 3.676 29.052.789 42.577-3.293l-.021-.01s2.125-1.813 2.251-6.614c.04-1.532 1.957-1.358 1.737 1.377-.169 2.108 1.693 1.266 2.243 1.065 1.5-.551 2.786-2.144 3.894-2.724 1.047-.549 2.167-.084.799 1.148-.406.366-1.54 1.359-2.382 1.935.134.223 2.303-1.258 3.833-2.083.738-.398 1.446-.124 1.446.284 0 .417-.651.833-4.196 3.049 0 .583 3.502-1.605 3.995-1.641zM25.724 5.556s-4.438 1.437-9.25.875c-2.953-.345-4.396-.979-5.583-2.729C9.828 2.243 9.682.618 9.861 0c4.738 5.285 12.363 3.806 15.863 5.556z"/>
    <linearGradient id="svg-gradient">
        <stop offset="0%" stop-color="var(--color-highlight)"/>
        <stop offset="50%" stop-color="var(--color-secondary)"/>
        <stop offset="100%" stop-color="var(--color-primary)"/>
    </linearGradient>
</svg>
